# xmcd
#
# Track frame offsets: 
#        150
#        23488
#        40606
#        69700
#        96371
#        115334
#        129363
#        153456
#        170175
#        187609
#        227800
#        253380
#
# Disc length: 3662 seconds
#
# Revision: 1
# Processed by: cddbd v1.5.2PL0 Copyright (c) Steve Scherf et al.
# Submitted via: ExactAudioCopy v1.0b3
#
DISCID=9d0e4c0c
DTITLE=Jason Ricci And New Blood - Done with the Devil
DYEAR=2009
DGENRE=Blues
TTITLE0=Done With The Devil
TTITLE1=Sweet Loving
TTITLE2=Holler For Craig Lawler
TTITLE3=Broken Toy
TTITLE4=Ptryptophan Pterodactyl
TTITLE5=I Turned Into a Martian
TTITLE6=As Long As I Live
TTITLE7=How It Come To Be
TTITLE8=Life Of Denial
TTITLE9=Afro Blue
TTITLE10=Keep The Wolf From My Door
TTITLE11=Enlightenment
EXTD=
EXTT0=
EXTT1=
EXTT2=
EXTT3=
EXTT4=
EXTT5=
EXTT6=
EXTT7=
EXTT8=
EXTT9=
EXTT10=
EXTT11=
PLAYORDER=
